<mxfile host="app.diagrams.net" modified="2021-05-12T14:42:11.921Z" agent="5.0 (Macintosh; Intel Mac OS X 10_15_7) AppleWebKit/537.36 (KHTML, like Gecko) Chrome/90.0.4430.93 Safari/537.36" etag="LXfRAxbSdMVEFoQcDl_l" version="14.6.9" type="github">
  <diagram id="Xi1nn2PSi7JHGxvTq26Z" name="第 1 页">
    <mxGraphModel dx="946" dy="614" grid="1" gridSize="10" guides="1" tooltips="1" connect="1" arrows="1" fold="1" page="1" pageScale="1" pageWidth="827" pageHeight="1169" math="0" shadow="0">
      <root>
        <mxCell id="0" />
        <mxCell id="1" parent="0" />
        <mxCell id="uA_nEafnC_yzEDvQVYXw-4" style="orthogonalLoop=1;jettySize=auto;html=1;entryX=0.657;entryY=0.025;entryDx=0;entryDy=0;entryPerimeter=0;fillColor=#a20025;strokeColor=#3333FF;curved=1;strokeWidth=3;" edge="1" parent="1" target="uA_nEafnC_yzEDvQVYXw-11">
          <mxGeometry relative="1" as="geometry">
            <mxPoint x="210" y="186" as="targetPoint" />
            <mxPoint x="320" y="100" as="sourcePoint" />
          </mxGeometry>
        </mxCell>
        <mxCell id="uA_nEafnC_yzEDvQVYXw-5" style="edgeStyle=none;rounded=0;orthogonalLoop=1;jettySize=auto;html=1;exitX=1;exitY=0;exitDx=0;exitDy=0;exitPerimeter=0;strokeColor=#3333FF;strokeWidth=3;" edge="1" parent="1">
          <mxGeometry relative="1" as="geometry">
            <mxPoint x="370" y="190" as="targetPoint" />
            <mxPoint x="370" y="100" as="sourcePoint" />
            <Array as="points">
              <mxPoint x="370" y="190" />
            </Array>
          </mxGeometry>
        </mxCell>
        <mxCell id="uA_nEafnC_yzEDvQVYXw-6" style="edgeStyle=none;rounded=0;orthogonalLoop=1;jettySize=auto;html=1;exitX=0.75;exitY=1;exitDx=0;exitDy=0;strokeColor=#3333FF;strokeWidth=3;entryX=0.25;entryY=0;entryDx=0;entryDy=0;" edge="1" parent="1" source="uA_nEafnC_yzEDvQVYXw-37" target="uA_nEafnC_yzEDvQVYXw-13">
          <mxGeometry relative="1" as="geometry">
            <mxPoint x="478" y="180" as="targetPoint" />
            <mxPoint x="395" y="100" as="sourcePoint" />
          </mxGeometry>
        </mxCell>
        <mxCell id="uA_nEafnC_yzEDvQVYXw-14" style="edgeStyle=none;rounded=0;orthogonalLoop=1;jettySize=auto;html=1;exitX=0.25;exitY=1;exitDx=0;exitDy=0;fillColor=#008a00;strokeColor=#3333FF;strokeWidth=3;" edge="1" parent="1" source="uA_nEafnC_yzEDvQVYXw-11">
          <mxGeometry relative="1" as="geometry">
            <mxPoint x="130" y="320" as="targetPoint" />
            <Array as="points">
              <mxPoint x="195" y="230" />
            </Array>
          </mxGeometry>
        </mxCell>
        <mxCell id="uA_nEafnC_yzEDvQVYXw-17" style="edgeStyle=none;rounded=0;orthogonalLoop=1;jettySize=auto;html=1;exitX=0.5;exitY=1;exitDx=0;exitDy=0;entryX=0.5;entryY=0;entryDx=0;entryDy=0;strokeColor=#3333FF;strokeWidth=3;" edge="1" parent="1" source="uA_nEafnC_yzEDvQVYXw-11" target="uA_nEafnC_yzEDvQVYXw-18">
          <mxGeometry relative="1" as="geometry">
            <mxPoint x="280" y="320" as="targetPoint" />
          </mxGeometry>
        </mxCell>
        <mxCell id="uA_nEafnC_yzEDvQVYXw-31" style="edgeStyle=none;curved=1;orthogonalLoop=1;jettySize=auto;html=1;exitX=0.25;exitY=0;exitDx=0;exitDy=0;strokeColor=#FF0000;strokeWidth=3;" edge="1" parent="1" source="uA_nEafnC_yzEDvQVYXw-11">
          <mxGeometry relative="1" as="geometry">
            <mxPoint x="320" y="80" as="targetPoint" />
          </mxGeometry>
        </mxCell>
        <mxCell id="uA_nEafnC_yzEDvQVYXw-39" value="撤销" style="edgeLabel;html=1;align=center;verticalAlign=middle;resizable=0;points=[];" vertex="1" connectable="0" parent="uA_nEafnC_yzEDvQVYXw-31">
          <mxGeometry x="0.0597" y="-2" relative="1" as="geometry">
            <mxPoint y="-1" as="offset" />
          </mxGeometry>
        </mxCell>
        <mxCell id="uA_nEafnC_yzEDvQVYXw-11" value="[1]" style="rounded=1;whiteSpace=wrap;html=1;fillColor=#ffe6cc;strokeColor=#d79b00;" vertex="1" parent="1">
          <mxGeometry x="160" y="190" width="70" height="40" as="geometry" />
        </mxCell>
        <mxCell id="uA_nEafnC_yzEDvQVYXw-19" style="edgeStyle=none;rounded=0;orthogonalLoop=1;jettySize=auto;html=1;exitX=0.25;exitY=1;exitDx=0;exitDy=0;strokeWidth=3;strokeColor=#3333FF;" edge="1" parent="1" source="uA_nEafnC_yzEDvQVYXw-12">
          <mxGeometry relative="1" as="geometry">
            <mxPoint x="360" y="318" as="targetPoint" />
          </mxGeometry>
        </mxCell>
        <mxCell id="uA_nEafnC_yzEDvQVYXw-33" value="撤销" style="edgeStyle=none;curved=1;orthogonalLoop=1;jettySize=auto;html=1;exitX=0.75;exitY=0;exitDx=0;exitDy=0;entryX=0.652;entryY=0.975;entryDx=0;entryDy=0;entryPerimeter=0;strokeColor=#FF0000;strokeWidth=3;" edge="1" parent="1" source="uA_nEafnC_yzEDvQVYXw-12" target="uA_nEafnC_yzEDvQVYXw-37">
          <mxGeometry relative="1" as="geometry">
            <mxPoint x="389" y="100" as="targetPoint" />
          </mxGeometry>
        </mxCell>
        <mxCell id="uA_nEafnC_yzEDvQVYXw-12" value="[2]" style="rounded=1;whiteSpace=wrap;html=1;fillColor=#ffe6cc;strokeColor=#d79b00;" vertex="1" parent="1">
          <mxGeometry x="344" y="190" width="70" height="40" as="geometry" />
        </mxCell>
        <mxCell id="uA_nEafnC_yzEDvQVYXw-36" value="撤销" style="edgeStyle=none;curved=1;orthogonalLoop=1;jettySize=auto;html=1;exitX=0.75;exitY=0;exitDx=0;exitDy=0;entryX=1;entryY=1;entryDx=0;entryDy=0;strokeColor=#FF0000;strokeWidth=3;" edge="1" parent="1" source="uA_nEafnC_yzEDvQVYXw-13" target="uA_nEafnC_yzEDvQVYXw-37">
          <mxGeometry relative="1" as="geometry">
            <mxPoint x="420" y="100" as="targetPoint" />
          </mxGeometry>
        </mxCell>
        <mxCell id="uA_nEafnC_yzEDvQVYXw-13" value="[3]" style="rounded=1;whiteSpace=wrap;html=1;fillColor=#ffe6cc;strokeColor=#d79b00;" vertex="1" parent="1">
          <mxGeometry x="460" y="190" width="70" height="40" as="geometry" />
        </mxCell>
        <mxCell id="uA_nEafnC_yzEDvQVYXw-21" style="edgeStyle=none;rounded=0;orthogonalLoop=1;jettySize=auto;html=1;exitX=0.75;exitY=1;exitDx=0;exitDy=0;strokeColor=#3333FF;strokeWidth=3;entryX=0.75;entryY=0;entryDx=0;entryDy=0;" edge="1" parent="1" source="uA_nEafnC_yzEDvQVYXw-15" target="uA_nEafnC_yzEDvQVYXw-22">
          <mxGeometry relative="1" as="geometry">
            <mxPoint x="125" y="450" as="targetPoint" />
          </mxGeometry>
        </mxCell>
        <mxCell id="uA_nEafnC_yzEDvQVYXw-29" value="撤销" style="edgeStyle=none;curved=1;orthogonalLoop=1;jettySize=auto;html=1;exitX=0.25;exitY=0;exitDx=0;exitDy=0;strokeColor=#FF0000;strokeWidth=3;entryX=0.114;entryY=1.05;entryDx=0;entryDy=0;entryPerimeter=0;" edge="1" parent="1" source="uA_nEafnC_yzEDvQVYXw-15" target="uA_nEafnC_yzEDvQVYXw-11">
          <mxGeometry relative="1" as="geometry">
            <mxPoint x="108" y="290" as="targetPoint" />
          </mxGeometry>
        </mxCell>
        <mxCell id="uA_nEafnC_yzEDvQVYXw-15" value="[1,2]" style="rounded=1;whiteSpace=wrap;html=1;fillColor=#ffe6cc;strokeColor=#d79b00;" vertex="1" parent="1">
          <mxGeometry x="90" y="320" width="70" height="40" as="geometry" />
        </mxCell>
        <mxCell id="uA_nEafnC_yzEDvQVYXw-30" style="edgeStyle=none;curved=1;orthogonalLoop=1;jettySize=auto;html=1;exitX=0.886;exitY=0;exitDx=0;exitDy=0;entryX=0.857;entryY=1;entryDx=0;entryDy=0;entryPerimeter=0;strokeColor=#FF0000;strokeWidth=3;exitPerimeter=0;" edge="1" parent="1" source="uA_nEafnC_yzEDvQVYXw-18" target="uA_nEafnC_yzEDvQVYXw-11">
          <mxGeometry relative="1" as="geometry" />
        </mxCell>
        <mxCell id="uA_nEafnC_yzEDvQVYXw-18" value="[1,3]" style="rounded=1;whiteSpace=wrap;html=1;fillColor=#ffe6cc;strokeColor=#d79b00;" vertex="1" parent="1">
          <mxGeometry x="220" y="320" width="70" height="40" as="geometry" />
        </mxCell>
        <mxCell id="uA_nEafnC_yzEDvQVYXw-32" value="撤销" style="edgeStyle=none;curved=1;orthogonalLoop=1;jettySize=auto;html=1;entryX=0.614;entryY=0.975;entryDx=0;entryDy=0;strokeColor=#FF0000;strokeWidth=3;entryPerimeter=0;" edge="1" parent="1" target="uA_nEafnC_yzEDvQVYXw-12">
          <mxGeometry relative="1" as="geometry">
            <mxPoint x="387" y="317" as="sourcePoint" />
          </mxGeometry>
        </mxCell>
        <mxCell id="uA_nEafnC_yzEDvQVYXw-20" value="[2,3]" style="rounded=1;whiteSpace=wrap;html=1;fillColor=#ffe6cc;strokeColor=#d79b00;arcSize=20;" vertex="1" parent="1">
          <mxGeometry x="340" y="320" width="70" height="40" as="geometry" />
        </mxCell>
        <mxCell id="uA_nEafnC_yzEDvQVYXw-28" style="edgeStyle=none;curved=1;orthogonalLoop=1;jettySize=auto;html=1;exitX=0.25;exitY=0;exitDx=0;exitDy=0;entryX=0.25;entryY=1;entryDx=0;entryDy=0;strokeWidth=3;strokeColor=#FF0000;" edge="1" parent="1" source="uA_nEafnC_yzEDvQVYXw-22" target="uA_nEafnC_yzEDvQVYXw-15">
          <mxGeometry relative="1" as="geometry" />
        </mxCell>
        <mxCell id="uA_nEafnC_yzEDvQVYXw-38" value="撤销" style="edgeLabel;html=1;align=center;verticalAlign=middle;resizable=0;points=[];" vertex="1" connectable="0" parent="uA_nEafnC_yzEDvQVYXw-28">
          <mxGeometry x="-0.1556" y="3" relative="1" as="geometry">
            <mxPoint x="1" as="offset" />
          </mxGeometry>
        </mxCell>
        <mxCell id="uA_nEafnC_yzEDvQVYXw-22" value="[1,2,3]" style="rounded=1;whiteSpace=wrap;html=1;fillColor=#ffe6cc;strokeColor=#d79b00;" vertex="1" parent="1">
          <mxGeometry x="90" y="450" width="70" height="40" as="geometry" />
        </mxCell>
        <mxCell id="uA_nEafnC_yzEDvQVYXw-37" value="[]" style="rounded=1;whiteSpace=wrap;html=1;fillColor=#ffe6cc;strokeColor=#d79b00;" vertex="1" parent="1">
          <mxGeometry x="320" y="60" width="115" height="40" as="geometry" />
        </mxCell>
      </root>
    </mxGraphModel>
  </diagram>
</mxfile>
